<svg xmlns="http://www.w3.org/2000/svg" viewBox="0 0 64 64">
  <path d="M14 22 Q12 8 32 8 Q52 8 50 22 Q57 30 52 46 Q44 60 32 60 Q20 60 12 46 Q7 30 14 22 Z"
        fill="#f4c9a8" stroke="#2a1a10" stroke-width="2"/>
  <path d="M22 10 L20 2" stroke="#3a2510" stroke-width="2.5" stroke-linecap="round"/>
  <path d="M32 8 L34 1"  stroke="#3a2510" stroke-width="2.5" stroke-linecap="round"/>
  <path d="M42 10 L46 2" stroke="#3a2510" stroke-width="2.5" stroke-linecap="round"/>
  <path d="M14 26 Q32 20 50 26" stroke="#3a2510" stroke-width="3" fill="none" stroke-linecap="round"/>
  <circle cx="22" cy="34" r="7" fill="#fff" stroke="#000" stroke-width="2"/>
  <circle cx="18" cy="35" r="3" fill="#000"/>
  <circle cx="44" cy="36" r="4" fill="#fff" stroke="#000" stroke-width="2"/>
  <circle cx="46" cy="36" r="2" fill="#000"/>
  <ellipse cx="32" cy="44" rx="3" ry="4" fill="#e0a884" stroke="#2a1a10" stroke-width="1.5"/>
  <path d="M22 51 Q32 59 42 51 Q32 57 22 52 Z" fill="#5a2020" stroke="#2a1a10" stroke-width="2"/>
  <rect x="30" y="50.5" width="3.5" height="6" fill="#fff" stroke="#2a1a10" stroke-width="1"/>
  <ellipse cx="42" cy="56" rx="1.6" ry="2.6" fill="#a8d8ec" stroke="#7aa0b0" stroke-width="0.8"/>
</svg>
